<svg xmlns="http://www.w3.org/2000/svg" width="21.385" height="21.385" viewBox="0 0 21.385 21.385">
  <g id="Layer_2" data-name="Layer 2" transform="translate(0.126 0.126)">
    <g id="calendar" transform="translate(-0.126 -0.126)">
      <rect id="Rectangle_1459" data-name="Rectangle 1459" width="21.385" height="21.385" fill="#fff" opacity="0"/>
      <path id="Tracé_643" data-name="Tracé 643" d="M16.213,3.762h-.881V2.881a.881.881,0,1,0-1.762,0v.881H8.285V2.881a.881.881,0,0,0-1.762,0v.881H5.643A2.643,2.643,0,0,0,3,6.4v10.57a2.643,2.643,0,0,0,2.643,2.643h10.57a2.643,2.643,0,0,0,2.643-2.643V6.4a2.643,2.643,0,0,0-2.643-2.643ZM7.4,15.213a.881.881,0,1,1,.881-.881A.881.881,0,0,1,7.4,15.213Zm7.047,0H10.928a.881.881,0,1,1,0-1.762h3.523a.881.881,0,0,1,0,1.762Zm2.643-5.285H4.762V6.4a.881.881,0,0,1,.881-.881h.881V6.4a.881.881,0,0,0,1.762,0V5.523H13.57V6.4a.881.881,0,1,0,1.762,0V5.523h.881a.881.881,0,0,1,.881.881Z" transform="translate(-0.235 -0.116)" fill="#fff"/>
    </g>
  </g>
</svg>
